<svg width="24" height="24" viewBox="0 0 24 24" fill="none" xmlns="http://www.w3.org/2000/svg">
<path d="M3 16C3 13.1716 3 11.7574 3.79081 10.8787C4.58162 10 5.85442 10 8.4 10H15.6C18.1456 10 19.4184 10 20.2092 10.8787C21 11.7574 21 13.1716 21 16C21 18.8284 21 20.2426 20.2092 21.1213C19.4184 22 18.1456 22 15.6 22H8.4C5.85442 22 4.58162 22 3.79081 21.1213C3 20.2426 3 18.8284 3 16Z" stroke="#3A3A3A" stroke-width="1.5"/>
<path d="M6 10V8C6 4.68629 8.68629 2 12 2C15.3137 2 18 4.68629 18 8V10" stroke="#3A3A3A" stroke-width="1.5" stroke-linecap="round"/>
<path d="M12 14V18" stroke="#3A3A3A" stroke-width="1.5" stroke-linecap="round"/>
</svg>
