<svg width="20" height="25" viewBox="0 0 20 25" fill="none" xmlns="http://www.w3.org/2000/svg">
    <path
        d="M18.0116 21.6853C15.7329 23.2506 12.9735 24.1667 10.0001 24.1667C7.02658 24.1667 4.26706 23.2506 1.98835 21.6852C0.98192 20.9939 0.551828 19.6769 1.13699 18.6053C2.35003 16.3837 4.84957 15 9.99998 15C15.1505 15 17.65 16.3838 18.863 18.6054C19.4482 19.6771 19.0181 20.994 18.0116 21.6853Z"
        fill="#1a9bd7"/>
    <path
        d="M10.0001 10C12.7615 10 15.0001 7.76143 15.0001 5.00001C15.0001 2.23858 12.7615 7.62939e-06 10.0001 7.62939e-06C7.23866 7.62939e-06 5.00009 2.23858 5.00009 5.00001C5.00009 7.76143 7.23866 10 10.0001 10Z"
        fill="#1a9bd7"/>
</svg>
