<?xml version="1.0" ?><!DOCTYPE svg  PUBLIC '-//W3C//DTD SVG 1.1//EN'
    'http://www.w3.org/Graphics/SVG/1.1/DTD/svg11.dtd'>
<svg xmlns="http://www.w3.org/2000/svg" width="22.112" height="23.3"
     viewBox="0 0 22.112 23.3">
    <g id="Group_263" data-name="Group 263"
       transform="translate(-389.402 -81.96)">
        <g id="Group_237" data-name="Group 237"
           transform="translate(356.7 52.3)">
            <path id="Path_83" data-name="Path 83"
                  d="M36.938,46.656a1.055,1.055,0,1,1,0-2.11h3.037a8.381,8.381,0,0,1,.638-1.847H36.938a1.055,1.055,0,1,1,0-2.11h5.131a8.476,8.476,0,0,1,2.262-1.715H36.938a1.055,1.055,0,1,1,0-2.11h8.311a1.044,1.044,0,0,1,.994,1.395,8.407,8.407,0,0,1,1.975-.236,8.592,8.592,0,0,1,1.27.1V31.77a2.111,2.111,0,0,0-2.111-2.11H34.813A2.111,2.111,0,0,0,32.7,31.77V48.524a2.111,2.111,0,0,0,2.111,2.11H40.94a8.389,8.389,0,0,1-1.157-3.978H36.938Zm0-13.587h8.311a1.055,1.055,0,1,1,0,2.11H36.938a1.055,1.055,0,1,1,0-2.11Z"
                  fill="#67c3f2"></path>
            <path id="Path_84" data-name="Path 84"
                  d="M56.611,62.47a6.6,6.6,0,1,0-6.6-6.6A6.6,6.6,0,0,0,56.611,62.47Zm-3.333-7.2a.717.717,0,0,1,1.014-.015L55.885,56.8V52.724a.717.717,0,1,1,1.434,0V56.8l1.594-1.546a.717.717,0,0,1,1,1.029L57.1,59.009a.717.717,0,0,1-1,0l-2.809-2.725A.716.716,0,0,1,53.278,55.27Z"
                  transform="translate(-8.392 -9.51)" fill="#67c3f2"></path>
        </g>
    </g>
</svg>
